<svg version="1.1" id="Layer_1" xmlns="http://www.w3.org/2000/svg" xmlns:xlink="http://www.w3.org/1999/xlink" x="0px" y="0px"
	 width="100%" viewBox="0 0 500 500" enable-background="new 0 0 500 500" xml:space="preserve">
<path fill="#FFFEFE" opacity="1.000000" stroke="none" 
	d="
M286.000000,501.000000 
	C190.666687,501.000000 95.833382,501.000000 1.000051,501.000000 
	C1.000034,334.333405 1.000034,167.666794 1.000017,1.000140 
	C167.666565,1.000094 334.333130,1.000094 500.999756,1.000047 
	C500.999847,167.666519 500.999847,334.333038 500.999939,500.999786 
	C429.500000,501.000000 358.000000,501.000000 286.000000,501.000000 
M38.643925,423.041260 
	C45.187378,424.027527 51.729259,425.860809 58.274525,425.872955 
	C156.940735,426.056213 255.607407,426.011993 354.273926,425.958618 
	C358.416443,425.956390 362.625549,425.705353 366.687836,424.948669 
	C377.004700,423.026947 386.022491,418.526306 393.475372,410.732300 
	C268.290100,285.913086 143.485672,161.473572 18.514595,36.867916 
	C11.489558,43.676064 6.398851,52.323418 5.075987,62.424702 
	C3.872622,71.613510 4.081852,81.013184 4.106076,90.318771 
	C4.112157,92.654564 5.213507,95.527977 6.800060,97.236115 
	C23.810701,115.550232 41.019890,133.679947 58.174656,151.860199 
	C87.910042,183.373138 117.628349,214.902237 147.446991,246.336182 
	C148.567261,247.517151 150.900909,248.683731 152.265091,248.324158 
	C169.433899,243.798630 183.840134,248.307724 195.766281,261.177002 
	C217.844757,285.001465 239.920349,308.829163 261.872803,332.769531 
	C269.866241,341.486847 277.553833,350.487732 285.234406,359.484375 
	C286.056946,360.447845 285.895386,362.251465 286.190338,363.665344 
	C284.865143,363.356995 283.489227,363.178864 282.234192,362.690308 
	C281.508667,362.407837 280.982849,361.619476 280.359009,361.067993 
	C257.637970,340.980621 234.917480,320.892670 212.191483,300.810944 
	C210.291458,299.132019 208.355453,296.416504 206.277313,300.990387 
	C207.640884,302.589722 209.013824,304.250916 210.439972,305.865112 
	C230.078400,328.093140 249.724350,350.314514 269.367371,372.538483 
	C270.139343,373.411865 271.192993,374.183960 271.580200,375.206024 
	C271.931519,376.133362 271.551605,377.337708 271.494080,378.419922 
	C270.450745,378.335846 269.171143,378.605011 268.411469,378.096863 
	C266.624786,376.901703 265.072601,375.350952 263.449646,373.916809 
	C241.347900,354.386841 219.242905,334.860504 197.164017,315.304718 
	C195.167770,313.536621 193.344696,311.533203 191.600510,315.682983 
	C192.274261,316.516113 192.967285,317.443024 193.731064,318.307404 
	C214.032745,341.282990 234.373276,364.224457 254.574982,387.287567 
	C255.855438,388.749390 256.065247,391.148987 256.773163,393.112305 
	C254.864853,392.304596 252.595337,391.913849 251.105469,390.623138 
	C239.267181,380.367249 227.580811,369.936096 215.840302,359.567322 
	C203.750031,348.889587 191.651260,338.221527 179.642761,327.625610 
	C174.911362,330.000702 178.020813,331.990448 179.610229,333.793091 
	C199.887878,356.790894 220.232819,379.729462 240.449799,402.780334 
	C241.507080,403.985809 241.569183,406.064117 242.094574,407.736084 
	C240.390961,407.185211 238.301575,407.085114 237.046036,406.010651 
	C228.564514,398.752380 220.267212,391.279053 211.895966,383.891571 
	C186.284683,361.290009 160.346481,339.043304 136.826859,314.186157 
	C126.664856,303.446289 122.762787,290.840576 126.440521,276.524872 
	C127.557678,272.176331 126.487267,270.012146 123.565811,267.268555 
	C93.439049,238.976028 63.432457,210.555542 33.381451,182.182297 
	C23.862467,173.194733 14.310767,164.241821 3.970304,154.517197 
	C3.970304,157.160553 3.970299,158.746063 3.970305,160.331589 
	C3.970587,230.831512 3.960881,301.331421 3.976669,371.831360 
	C3.982060,395.902802 15.700545,413.482422 38.643925,423.041260 
M267.244171,107.117523 
	C301.303680,111.060173 330.091736,125.818474 352.177124,151.751419 
	C369.119049,171.644836 376.216034,194.860291 367.181274,221.032959 
	C366.769135,222.226913 367.754486,224.510895 368.817474,225.518860 
	C410.653107,265.188324 452.571930,304.770020 494.494110,344.348114 
	C495.243195,345.055298 496.164551,345.579987 497.522461,346.564728 
	C497.585968,345.224304 497.641266,344.600922 497.641327,343.977570 
	C497.645325,272.487000 497.776276,200.995819 497.450439,129.506714 
	C497.416473,122.048820 495.962921,114.030525 492.949005,107.260048 
	C484.135895,87.462158 468.340515,76.088249 446.485565,76.019073 
	C345.500366,75.699425 244.513565,75.880867 143.527328,75.887711 
	C142.361359,75.887787 141.187805,75.880699 140.030579,76.000481 
	C127.548920,77.292419 116.809853,82.149345 108.482292,90.807678 
	C233.422134,215.771790 358.059784,340.433685 482.910095,465.308228 
	C490.634705,457.197449 495.965240,447.561218 496.995880,436.046722 
	C497.692200,428.267151 497.314606,420.397156 497.714111,412.582764 
	C497.900665,408.933868 496.615417,406.392944 494.147125,403.781006 
	C446.537964,353.401550 398.961304,302.990936 351.568665,252.408051 
	C347.098450,247.636902 343.878296,245.276855 336.445801,247.606155 
	C318.064362,253.366760 300.197693,248.979004 284.366669,239.021606 
	C250.355865,217.629440 233.338013,185.346283 228.225479,146.304657 
	C226.951416,136.575333 228.617599,126.875732 234.875122,118.805542 
	C242.850143,108.520302 254.285629,106.854767 267.244171,107.117523 
z"/>
<path fill="#E9651A" opacity="1.000000" stroke="none" 
	d="
M38.263893,422.937256 
	C15.700545,413.482422 3.982060,395.902802 3.976669,371.831360 
	C3.960881,301.331421 3.970587,230.831512 3.970305,160.331589 
	C3.970299,158.746063 3.970304,157.160553 3.970304,154.517197 
	C14.310767,164.241821 23.862467,173.194733 33.381451,182.182297 
	C63.432457,210.555542 93.439049,238.976028 123.565811,267.268555 
	C126.487267,270.012146 127.557678,272.176331 126.440521,276.524872 
	C122.762787,290.840576 126.664856,303.446289 136.826859,314.186157 
	C160.346481,339.043304 186.284683,361.290009 211.895966,383.891571 
	C220.267212,391.279053 228.564514,398.752380 237.046036,406.010651 
	C238.301575,407.085114 240.390961,407.185211 242.094574,407.736084 
	C241.569183,406.064117 241.507080,403.985809 240.449799,402.780334 
	C220.232819,379.729462 199.887878,356.790894 179.610229,333.793091 
	C178.020813,331.990448 174.911362,330.000702 179.642761,327.625610 
	C191.651260,338.221527 203.750031,348.889587 215.840302,359.567322 
	C227.580811,369.936096 239.267181,380.367249 251.105469,390.623138 
	C252.595337,391.913849 254.864853,392.304596 256.773163,393.112305 
	C256.065247,391.148987 255.855438,388.749390 254.574982,387.287567 
	C234.373276,364.224457 214.032745,341.282990 193.731064,318.307404 
	C192.967285,317.443024 192.274261,316.516113 191.600510,315.682983 
	C193.344696,311.533203 195.167770,313.536621 197.164017,315.304718 
	C219.242905,334.860504 241.347900,354.386841 263.449646,373.916809 
	C265.072601,375.350952 266.624786,376.901703 268.411469,378.096863 
	C269.171143,378.605011 270.450745,378.335846 271.494080,378.419922 
	C271.551605,377.337708 271.931519,376.133362 271.580200,375.206024 
	C271.192993,374.183960 270.139343,373.411865 269.367371,372.538483 
	C249.724350,350.314514 230.078400,328.093140 210.439972,305.865112 
	C209.013824,304.250916 207.640884,302.589722 206.277313,300.990387 
	C208.355453,296.416504 210.291458,299.132019 212.191483,300.810944 
	C234.917480,320.892670 257.637970,340.980621 280.359009,361.067993 
	C280.982849,361.619476 281.508667,362.407837 282.234192,362.690308 
	C283.489227,363.178864 284.865143,363.356995 286.190338,363.665344 
	C285.895386,362.251465 286.056946,360.447845 285.234406,359.484375 
	C277.553833,350.487732 269.866241,341.486847 261.872803,332.769531 
	C239.920349,308.829163 217.844757,285.001465 195.766281,261.177002 
	C183.840134,248.307724 169.433899,243.798630 152.265091,248.324158 
	C150.900909,248.683731 148.567261,247.517151 147.446991,246.336182 
	C117.628349,214.902237 87.910042,183.373138 58.174656,151.860199 
	C41.019890,133.679947 23.810701,115.550232 6.800060,97.236115 
	C5.213507,95.527977 4.112157,92.654564 4.106076,90.318771 
	C4.081852,81.013184 3.872622,71.613510 5.075987,62.424702 
	C6.398851,52.323418 11.489558,43.676064 18.514595,36.867916 
	C143.485672,161.473572 268.290100,285.913086 393.475372,410.732300 
	C386.022491,418.526306 377.004700,423.026947 366.687836,424.948669 
	C362.625549,425.705353 358.416443,425.956390 354.273926,425.958618 
	C255.607407,426.011993 156.940735,426.056213 58.274525,425.872955 
	C51.729259,425.860809 45.187378,424.027527 38.263893,422.937256 
z"/>
<path fill="#232323" opacity="1.000000" stroke="none" 
	d="
M266.777710,107.101593 
	C254.285629,106.854767 242.850143,108.520302 234.875122,118.805542 
	C228.617599,126.875732 226.951416,136.575333 228.225479,146.304657 
	C233.338013,185.346283 250.355865,217.629440 284.366669,239.021606 
	C300.197693,248.979004 318.064362,253.366760 336.445801,247.606155 
	C343.878296,245.276855 347.098450,247.636902 351.568665,252.408051 
	C398.961304,302.990936 446.537964,353.401550 494.147125,403.781006 
	C496.615417,406.392944 497.900665,408.933868 497.714111,412.582764 
	C497.314606,420.397156 497.692200,428.267151 496.995880,436.046722 
	C495.965240,447.561218 490.634705,457.197449 482.910095,465.308228 
	C358.059784,340.433685 233.422134,215.771790 108.482292,90.807678 
	C116.809853,82.149345 127.548920,77.292419 140.030579,76.000481 
	C141.187805,75.880699 142.361359,75.887787 143.527328,75.887711 
	C244.513565,75.880867 345.500366,75.699425 446.485565,76.019073 
	C468.340515,76.088249 484.135895,87.462158 492.949005,107.260048 
	C495.962921,114.030525 497.416473,122.048820 497.450439,129.506714 
	C497.776276,200.995819 497.645325,272.487000 497.641327,343.977570 
	C497.641266,344.600922 497.585968,345.224304 497.522461,346.564728 
	C496.164551,345.579987 495.243195,345.055298 494.494110,344.348114 
	C452.571930,304.770020 410.653107,265.188324 368.817474,225.518860 
	C367.754486,224.510895 366.769135,222.226913 367.181274,221.032959 
	C376.216034,194.860291 369.119049,171.644836 352.177124,151.751419 
	C330.091736,125.818474 301.303680,111.060173 266.777710,107.101593 
z"/>
</svg>